<?xml version="1.0" standalone="no"?>
<!DOCTYPE svg PUBLIC "-//W3C//DTD SVG 20010904//EN"
 "http://www.w3.org/TR/2001/REC-SVG-20010904/DTD/svg10.dtd">
<svg version="1.0" xmlns="http://www.w3.org/2000/svg"
 width="492.000000pt" height="492.000000pt" viewBox="0 0 492.000000 492.000000"
 preserveAspectRatio="xMidYMid meet">
<metadata>
Created by potrace 1.11, written by Peter Selinger 2001-2013
</metadata>
<g transform="translate(0.000000,492.000000) scale(0.100000,-0.100000)"
fill="#000000" stroke="none">
<path d="M2430 4817 c-32 -16 -37 -48 -11 -71 43 -39 96 24 55 65 -16 16 -23
17 -44 6z"/>
<path d="M2010 4775 c-18 -22 -4 -62 24 -67 45 -9 67 20 50 66 -8 20 -57 21
-74 1z"/>
<path d="M2819 4772 c-17 -14 -20 -25 -15 -45 11 -45 71 -47 82 -1 11 45 -31
74 -67 46z"/>
<path d="M1629 4679 c-11 -11 -19 -27 -17 -36 5 -25 40 -42 66 -32 29 11 31
63 3 79 -26 13 -28 13 -52 -11z"/>
<path d="M3220 4672 c-40 -12 -45 -63 -9 -83 37 -19 79 24 59 61 -11 21 -29
29 -50 22z"/>
<path d="M2337 4584 c-1 -1 -45 -4 -97 -7 -52 -3 -102 -8 -110 -11 -8 -2 -33
-7 -55 -10 -145 -18 -369 -86 -538 -163 -56 -26 -109 -52 -117 -57 -8 -6 -31
-20 -50 -30 -19 -10 -71 -43 -115 -72 -486 -324 -817 -838 -911 -1418 -22
-136 -32 -389 -20 -496 3 -19 7 -62 11 -95 3 -33 15 -103 26 -156 127 -619
523 -1145 1084 -1440 170 -89 438 -182 590 -204 47 -6 102 -16 130 -22 54 -12
398 -10 495 2 185 24 417 84 549 141 228 100 435 228 581 359 80 72 185 179
230 235 25 30 48 57 51 60 4 3 42 57 84 120 164 245 296 581 330 840 4 30 10
64 12 75 9 36 12 419 3 470 -4 28 -11 74 -14 103 -41 344 -246 786 -491 1059
-119 132 -283 275 -428 373 -73 49 -273 155 -362 192 -158 66 -398 124 -589
143 -64 7 -274 13 -279 9z m338 -60 c204 -28 366 -72 540 -146 683 -292 1153
-920 1239 -1655 13 -110 14 -381 2 -461 -3 -18 -8 -52 -11 -75 -18 -133 -70
-327 -121 -454 -249 -618 -760 -1068 -1401 -1233 -61 -16 -133 -32 -160 -36
-26 -3 -50 -8 -53 -9 -12 -8 -183 -19 -285 -19 -103 0 -234 8 -315 20 -112 17
-345 77 -405 104 -11 5 -43 18 -72 29 -88 34 -244 116 -338 178 -400 264 -690
645 -836 1096 -22 70 -40 133 -45 167 -3 14 -7 32 -9 40 -42 149 -53 528 -21
720 3 14 7 43 11 65 34 230 162 544 313 771 330 494 827 805 1432 897 114 18
411 18 535 1z"/>
<path d="M1302 3205 c-30 -8 -90 -31 -133 -50 -88 -39 -118 -46 -149 -38 -18
5 -21 11 -16 34 5 26 3 29 -19 29 -48 0 -59 -77 -14 -101 12 -6 43 -11 70 -11
l49 1 -3 -447 c-2 -504 -3 -507 -67 -507 -31 0 -35 3 -40 30 l-6 30 -13 -23
c-35 -64 30 -109 111 -77 22 9 61 60 84 111 17 35 19 78 21 429 2 215 6 405 9
423 7 45 66 107 119 128 64 24 143 16 190 -20 77 -59 119 -165 119 -301 -1
-141 -40 -262 -110 -342 -56 -63 -156 -79 -196 -31 -23 26 -23 49 2 80 23 30
18 38 -26 38 -59 0 -87 -76 -49 -133 37 -56 144 -67 237 -25 167 77 282 321
245 522 -17 98 -87 192 -173 236 -60 29 -166 36 -242 15z"/>
<path d="M3351 3133 c-23 -28 -20 -59 7 -80 52 -41 118 27 78 80 -23 31 -62
31 -85 0z"/>
<path d="M3733 3080 c-35 -37 -63 -70 -63 -73 0 -2 9 -7 20 -10 16 -4 20 -14
20 -45 0 -41 0 -41 -42 -44 -31 -2 -44 -8 -46 -20 -3 -15 4 -18 42 -18 l46 0
1 -237 c0 -131 2 -247 4 -258 8 -40 39 -95 62 -110 23 -15 26 -15 55 14 l31
30 -32 36 c-17 20 -32 41 -32 48 -1 7 -2 117 -3 245 l-2 232 48 0 c41 0 48 3
48 20 0 17 -7 20 -49 20 l-49 0 4 120 c2 66 2 120 1 119 -1 0 -30 -31 -64 -69z"/>
<path d="M3365 2900 c-33 -22 -63 -40 -67 -40 -5 0 -8 -4 -8 -10 0 -5 6 -10
14 -10 32 0 36 -26 37 -265 0 -232 0 -238 -22 -261 -12 -13 -19 -27 -16 -31 8
-7 159 -4 167 3 2 3 -6 14 -19 24 l-25 18 0 237 c-1 131 1 269 4 306 3 38 3
69 0 69 -3 0 -32 -18 -65 -40z"/>
<path d="M2085 2917 c-205 -69 -284 -365 -144 -539 31 -39 31 -39 12 -66 -54
-80 -65 -130 -33 -162 23 -23 56 -16 78 18 14 21 13 22 -11 22 -45 0 -47 33
-7 99 19 30 23 32 38 18 20 -18 102 -45 152 -50 47 -5 130 15 173 42 45 28 95
84 103 117 11 42 -3 39 -48 -10 -50 -55 -100 -75 -178 -72 -57 2 -160 40 -160
59 0 25 227 340 305 422 25 27 45 50 45 52 0 1 -11 3 -24 3 -13 0 -52 13 -87
29 -68 31 -154 38 -214 18z m135 -47 c63 -34 59 -74 -17 -185 -30 -44 -82
-122 -116 -172 l-62 -93 -28 32 c-89 105 -82 283 16 380 50 51 149 69 207 38z"/>
<path d="M2536 2900 l-29 -30 37 -32 c20 -18 40 -46 45 -63 14 -50 8 -706 -7
-732 -6 -12 -12 -31 -12 -42 0 -19 5 -17 48 16 26 20 62 42 81 50 l33 14 -23
25 c-21 23 -24 36 -27 122 -2 91 -2 95 15 80 64 -56 161 -65 243 -24 28 14 58
33 69 43 119 115 169 315 110 443 -43 93 -111 146 -197 157 -87 10 -171 -30
-223 -106 l-23 -33 -10 28 c-11 35 -74 114 -90 114 -6 0 -24 -14 -40 -30z
m416 -69 c68 -44 102 -118 101 -225 0 -166 -68 -281 -178 -306 -45 -10 -101 5
-115 30 -5 10 -10 34 -10 52 l0 33 -26 -32 c-14 -18 -29 -33 -34 -33 -4 0 -8
84 -8 186 -1 178 1 188 22 223 63 99 161 127 248 72z"/>
<path d="M1069 1903 c-6 -33 -3 -226 3 -229 5 -3 8 20 8 50 l0 56 53 0 c62 0
90 21 90 67 0 41 -35 63 -99 63 -30 0 -55 -3 -55 -7z m131 -33 c13 -25 5 -57
-18 -68 -9 -5 -35 -8 -57 -8 l-40 1 -1 48 -2 47 54 0 c43 0 55 -4 64 -20z"/>
<path d="M1371 1910 c-7 -12 -6 -222 1 -233 6 -10 14 79 9 107 -3 17 32 46 56
46 27 0 45 -36 43 -85 -3 -56 0 -81 8 -67 5 6 8 40 7 73 -1 52 -5 65 -24 80
-28 23 -40 24 -68 4 -21 -15 -22 -14 -26 32 -2 27 -5 46 -6 43z"/>
<path d="M2439 1894 c-10 -12 -10 -22 -1 -47 11 -28 9 -34 -13 -57 -33 -34
-32 -73 1 -99 33 -26 64 -27 96 -2 24 19 24 19 37 -1 7 -11 15 -18 17 -15 3 3
-1 16 -10 29 -10 16 -12 28 -6 38 13 20 13 40 0 40 -5 0 -10 -9 -10 -20 0 -29
-14 -25 -43 13 -24 32 -24 33 -6 56 22 27 24 52 7 69 -17 17 -53 15 -69 -4z
m58 -5 c12 -12 8 -34 -10 -57 -13 -17 -37 3 -37 33 0 35 24 47 47 24z m2 -129
c36 -45 32 -64 -16 -73 -19 -3 -33 2 -50 19 -12 13 -23 27 -23 32 0 12 39 62
49 62 4 0 22 -18 40 -40z"/>
<path d="M2708 1904 c-4 -3 10 -49 29 -102 19 -53 37 -105 40 -114 9 -30 20
-20 38 30 10 26 28 75 41 109 26 67 31 94 14 77 -6 -6 -26 -54 -44 -108 l-34
-97 -20 53 c-10 29 -27 77 -36 106 -18 54 -19 56 -28 46z"/>
<path d="M3020 1894 c0 -8 5 -12 10 -9 6 4 8 11 5 16 -9 14 -15 11 -15 -7z"/>
<path d="M3312 1865 c2 -25 1 -44 -2 -42 -53 30 -60 31 -87 11 -63 -48 -41
-163 32 -164 25 0 52 16 42 26 -3 4 -13 2 -21 -5 -24 -20 -65 6 -72 47 -13 69
43 116 88 75 16 -15 19 -27 15 -66 -2 -29 1 -54 8 -64 11 -14 13 4 14 105 1
85 -2 122 -10 122 -7 0 -10 -16 -7 -45z"/>
<path d="M1948 1884 c-5 -4 -8 -16 -8 -26 0 -10 -6 -18 -12 -18 -10 0 -10 -2
0 -9 8 -5 14 -32 15 -72 3 -71 10 -89 35 -89 16 1 16 1 0 11 -15 8 -18 24 -18
79 0 49 4 70 13 70 9 0 9 2 1 8 -7 4 -14 18 -15 30 -2 13 -7 20 -11 16z"/>
<path d="M1665 1825 c-51 -50 -18 -155 49 -155 58 0 98 76 70 132 -27 52 -80
63 -119 23z m94 -8 c21 -26 24 -75 7 -102 -24 -37 -81 -35 -98 3 -8 15 -13 34
-12 42 1 8 2 20 3 27 3 37 76 58 100 30z"/>
<path d="M2165 1840 c-33 -13 -49 -39 -49 -82 0 -72 77 -111 130 -67 21 17 28
76 14 110 -19 44 -50 58 -95 39z m69 -26 c16 -16 22 -80 8 -100 -24 -37 -81
-33 -102 7 -13 23 -7 74 11 96 15 18 64 17 83 -3z"/>
<path d="M3509 1832 c-40 -28 -41 -118 -2 -148 10 -7 30 -14 44 -14 29 0 78
34 66 46 -4 4 -13 1 -20 -8 -30 -38 -87 -22 -101 28 -6 20 -3 22 51 22 83 0
82 0 76 25 -14 57 -69 81 -114 49z m85 -24 c9 -12 16 -25 16 -28 0 -3 -27 -6
-60 -7 -52 -2 -58 0 -53 15 17 48 70 59 97 20z"/>
<path d="M3802 1840 c-47 -19 -54 -117 -11 -152 29 -24 63 -22 95 5 37 32 37
102 -1 135 -28 23 -46 26 -83 12z m82 -31 c16 -23 14 -82 -3 -103 -16 -19 -58
-25 -77 -12 -34 25 -34 105 0 128 22 15 65 8 80 -13z"/>
<path d="M3020 1761 c0 -44 4 -82 9 -85 4 -3 8 33 9 79 0 47 -4 85 -9 85 -5 0
-9 -36 -9 -79z"/>
<path d="M1256 4508 c-13 -19 -14 -25 -2 -43 17 -26 49 -31 70 -10 20 21 20
39 0 59 -22 22 -50 20 -68 -6z"/>
<path d="M3562 4488 c-17 -17 -15 -65 4 -72 29 -11 53 -6 64 13 24 45 -33 94
-68 59z"/>
<path d="M921 4278 c-20 -51 45 -89 75 -44 22 34 4 66 -37 66 -22 0 -32 -6
-38 -22z"/>
<path d="M3880 4240 c-14 -26 -4 -57 20 -65 44 -14 80 41 48 73 -19 19 -56 14
-68 -8z"/>
<path d="M660 4017 c-30 -15 -37 -49 -15 -71 21 -20 39 -20 59 0 21 20 20 47
-2 67 -15 13 -22 14 -42 4z"/>
<path d="M4172 3964 c-25 -18 -29 -46 -7 -67 15 -16 26 -16 58 -2 22 9 22 47
-1 68 -23 21 -22 21 -50 1z"/>
<path d="M411 3681 c-24 -24 -18 -55 14 -69 46 -21 84 43 43 72 -29 20 -34 20
-57 -3z"/>
<path d="M4378 3615 c-9 -21 -8 -28 7 -45 35 -39 93 -1 74 48 -12 33 -65 31
-81 -3z"/>
<path d="M241 3324 c-41 -29 2 -99 47 -75 25 13 31 30 22 57 -11 27 -43 36
-69 18z"/>
<path d="M4550 3260 c-16 -16 -18 -24 -8 -44 14 -33 36 -40 64 -21 30 19 31
49 2 69 -29 20 -34 20 -58 -4z"/>
<path d="M130 2930 c-28 -28 -9 -70 31 -70 43 0 63 45 33 74 -21 21 -40 20
-64 -4z"/>
<path d="M4650 2870 c-11 -11 -20 -24 -20 -30 0 -13 37 -50 49 -50 37 0 54 72
22 90 -26 13 -28 13 -51 -10z"/>
<path d="M98 2539 c-36 -21 -16 -79 27 -79 42 0 59 44 29 74 -18 18 -32 20
-56 5z"/>
<path d="M4676 2474 c-41 -40 6 -101 53 -68 11 8 21 24 21 34 0 22 -25 50 -45
50 -7 0 -21 -7 -29 -16z"/>
<path d="M126 2134 c-19 -18 -20 -28 -6 -55 20 -37 80 -18 80 26 0 42 -44 59
-74 29z"/>
<path d="M4638 2079 c-36 -21 -19 -79 23 -79 41 0 61 41 34 70 -20 22 -32 24
-57 9z"/>
<path d="M220 1740 c-15 -29 -3 -59 26 -66 30 -8 54 11 54 40 0 46 -59 64 -80
26z"/>
<path d="M4520 1688 c-18 -20 -17 -40 3 -65 27 -36 89 15 68 55 -16 29 -49 34
-71 10z"/>
<path d="M396 1384 c-21 -20 -20 -47 2 -67 25 -23 66 -2 70 36 3 21 -2 29 -23
37 -33 13 -31 13 -49 -6z"/>
<path d="M4353 1341 c-6 -3 -15 -16 -22 -28 -10 -19 -8 -26 9 -43 25 -25 42
-25 65 0 15 16 16 25 7 44 -11 24 -42 38 -59 27z"/>
<path d="M628 1059 c-36 -21 -16 -79 27 -79 42 0 59 44 29 74 -18 18 -32 20
-56 5z"/>
<path d="M4102 1008 c-28 -28 -7 -78 33 -78 27 0 45 18 45 45 0 27 -18 45 -45
45 -12 0 -26 -5 -33 -12z"/>
<path d="M910 770 c-11 -11 -20 -26 -20 -34 0 -17 27 -46 41 -46 24 0 49 22
49 43 0 47 -40 67 -70 37z"/>
<path d="M3828 743 c-36 -9 -34 -77 3 -88 26 -9 61 22 57 48 -4 24 -37 45 -60
40z"/>
<path d="M1232 538 c-32 -32 4 -87 48 -73 25 8 37 50 20 70 -15 18 -51 20 -68
3z"/>
<path d="M3472 499 c-11 -17 -11 -25 3 -45 24 -37 66 -30 79 12 14 46 -57 74
-82 33z"/>
<path d="M1590 360 c-27 -51 36 -95 72 -50 16 20 17 25 5 44 -20 29 -63 33
-77 6z"/>
<path d="M3112 348 c-17 -17 -15 -53 3 -68 20 -17 62 -5 70 20 14 44 -41 80
-73 48z"/>
<path d="M1986 264 c-30 -30 -13 -74 29 -74 42 0 59 44 29 74 -8 9 -22 16 -29
16 -7 0 -21 -7 -29 -16z"/>
<path d="M2720 250 c-23 -23 -15 -51 19 -69 29 -16 64 14 56 48 -11 45 -43 53
-75 21z"/>
<path d="M2386 231 c-22 -24 -20 -58 4 -71 29 -15 59 -3 66 26 11 44 -41 77
-70 45z"/>
</g>
</svg>
